<svg xmlns="http://www.w3.org/2000/svg" width="258" height="78" viewBox="0 0 258 78" fill="none"><path d="M74.3174 64.6912C63.8547 61.9507 53.0619 60.2295 40.952 60.2295C28.263 60.2295 16.3537 61.692 5.51701 64.6912L0.0568619 77.0276C-0.00167679 77.1595 -0.0154062 77.3045 0.0174816 77.4437C0.0503695 77.5828 0.12834 77.7096 0.241137 77.8073C0.353934 77.9051 0.496285 77.9692 0.64949 77.9912C0.802695 78.0133 0.959584 77.9923 1.09954 77.9309C12.1566 73.1533 25.7627 71.0103 41.1672 71.0103C55.6084 71.0103 67.6753 73.6012 78.4121 77.8142C78.5527 77.8723 78.709 77.8902 78.8608 77.8657C79.0126 77.8411 79.1528 77.7753 79.2633 77.6766C79.3738 77.5779 79.4494 77.451 79.4804 77.3124C79.5113 77.1738 79.4962 77.0298 79.4369 76.8992L74.3174 64.6912Z" fill="white"></path><path d="M30.1817 5.21191L38.2949 24.3741C38.2949 24.3741 26.1232 54.9519 24.914 57.8006C24.8619 57.9191 24.7758 58.0224 24.6648 58.0994C24.5538 58.1765 24.4221 58.2244 24.2837 58.2382C18.8952 58.726 13.7646 59.1269 8.53199 60.4052C8.39458 60.4387 8.24975 60.4365 8.11361 60.3989C7.97748 60.3613 7.85537 60.2898 7.76086 60.1923C7.66634 60.0947 7.60314 59.9751 7.57826 59.8466C7.55339 59.718 7.56783 59.5857 7.61996 59.4643L30.1817 5.21191Z" fill="white"></path><path d="M71.2476 60.3452C66.1068 59.1802 60.9991 58.658 55.7238 58.2383C55.5814 58.2269 55.4453 58.1792 55.3308 58.1007C55.2164 58.0221 55.128 57.9158 55.0756 57.7937C54.4326 56.2671 32.127 0.61426 32.127 0.61426C32.2892 0.614226 35.8159 0.614534 36.0213 0.61426H46.6203C46.9732 0.614486 47.3177 0.712817 47.6085 0.896309C47.8994 1.0798 48.1229 1.33985 48.2496 1.64224L72.1468 59.4066C72.1971 59.5268 72.2106 59.6574 72.1858 59.7841C72.161 59.9108 72.099 60.0289 72.0064 60.1256C71.9138 60.2223 71.7941 60.2939 71.6604 60.3326C71.5266 60.3713 71.3839 60.3756 71.2476 60.3452Z" fill="white"></path><path d="M90.6869 0H105.364V19.6417H114.074V31.2412H105.364L105.369 77.8749H90.6925L90.6869 31.2412H83.1602V19.6417H90.6869V0Z" fill="white"></path><path d="M120.4 0H135.004V77.875H120.4V0Z" fill="white"></path><path d="M256.922 30.2878L247.835 38.6316C244.142 35.2756 240.791 33.5968 237.782 33.5952C236.134 33.5952 234.844 33.9159 233.914 34.5573C232.983 35.1987 232.517 35.997 232.515 36.952C232.524 37.6976 232.84 38.4123 233.401 38.9515C233.994 39.56 235.454 40.3912 237.782 41.445L243.162 43.9126C248.824 46.4798 252.712 49.0957 254.826 51.7601C256.941 54.4245 257.999 57.5516 258 61.1413C258 65.9118 256.092 69.8936 252.275 73.0865C248.457 76.2794 243.341 77.8751 236.926 77.8736C228.395 77.8736 221.586 74.8155 216.498 68.6994L225.529 59.6663C227.222 61.4913 229.274 63.0075 231.577 64.1358C233.888 65.2712 235.938 65.8389 237.726 65.8389C239.662 65.8389 241.222 65.4108 242.404 64.5545C243.586 63.6983 244.177 62.7111 244.179 61.5929C244.179 59.5213 242.044 57.4975 237.774 55.5215L232.83 53.2515C223.37 48.8761 218.639 43.3967 218.637 36.8132C218.637 32.5696 220.42 28.9415 223.986 25.9289C227.553 22.9163 232.113 21.4108 237.667 21.4124C241.411 21.3949 245.106 22.1907 248.451 23.7348C251.796 25.279 254.696 27.5276 256.914 30.2972L256.922 30.2878Z" fill="white"></path><path d="M191.55 22.7365H206.245V77.8733H191.55V70.8162C188.682 73.3254 185.806 75.1288 182.922 76.2266C179.945 77.3433 176.755 77.9031 173.54 77.8733C165.977 77.8733 159.437 75.1798 153.919 69.7929C148.4 64.406 145.64 57.7089 145.639 49.7015C145.639 41.4008 148.309 34.5978 153.65 29.2925C158.99 23.9871 165.48 21.3345 173.12 21.3345C176.519 21.3142 179.886 21.9372 183.011 23.1646C186.22 24.4692 189.121 26.3367 191.55 28.662V22.7365ZM176.102 33.7925C171.559 33.7925 167.786 35.2667 164.784 38.2149C161.781 41.1632 160.279 44.9435 160.277 49.5556C160.277 54.2023 161.806 58.0249 164.863 61.0234C167.92 64.0218 171.684 65.5203 176.153 65.5187C180.764 65.5187 184.591 64.0446 187.633 61.0963C190.675 58.148 192.195 54.2846 192.193 49.5062C192.193 44.8298 190.673 41.0409 187.633 38.1397C184.593 35.2384 180.749 33.7894 176.102 33.7925Z" fill="white"></path></svg>