<svg xmlns="http://www.w3.org/2000/svg" width="80" height="78" viewBox="0 0 80 78" fill="none"><path d="M74.3174 64.078C63.8547 61.3375 53.0619 59.6162 40.952 59.6162C28.263 59.6162 16.3537 61.0787 5.51701 64.078L0.0568619 76.4144C-0.00167679 76.5462 -0.0154062 76.6912 0.0174816 76.8304C0.0503695 76.9696 0.12834 77.0963 0.241137 77.1941C0.353934 77.2918 0.496285 77.3559 0.64949 77.3779C0.802695 77.4 0.959584 77.379 1.09954 77.3177C12.1566 72.54 25.7627 70.397 41.1672 70.397C55.6084 70.397 67.6753 72.9879 78.4121 77.201C78.5527 77.259 78.709 77.277 78.8608 77.2524C79.0126 77.2279 79.1528 77.162 79.2633 77.0633C79.3738 76.9647 79.4494 76.8378 79.4804 76.6991C79.5113 76.5605 79.4962 76.4165 79.4369 76.2859L74.3174 64.078Z" fill="white"></path><path d="M30.1817 4.59863L38.2949 23.7608C38.2949 23.7608 26.1232 54.3386 24.914 57.1873C24.8619 57.3058 24.7758 57.4091 24.6648 57.4862C24.5538 57.5632 24.4221 57.6112 24.2837 57.6249C18.8952 58.1127 13.7646 58.5137 8.53199 59.7919C8.39458 59.8254 8.24975 59.8232 8.11361 59.7856C7.97748 59.748 7.85537 59.6765 7.76086 59.579C7.66634 59.4815 7.60314 59.3618 7.57826 59.2333C7.55339 59.1048 7.56783 58.9724 7.61996 58.851L30.1817 4.59863Z" fill="white"></path><path d="M71.2476 59.7309C66.1068 58.5659 60.9991 58.0437 55.7238 57.6241C55.5814 57.6126 55.4453 57.565 55.3308 57.4864C55.2164 57.4079 55.128 57.3016 55.0756 57.1795C54.4326 55.6528 32.127 2.68232e-06 32.127 2.68232e-06C32.2892 -3.14589e-05 35.8159 0.000276668 36.0213 2.68232e-06H46.6203C46.9732 0.00022785 47.3177 0.0985589 47.6085 0.282051C47.8994 0.465543 48.1229 0.725595 48.2496 1.02798L72.1468 58.7924C72.1971 58.9126 72.2106 59.0431 72.1858 59.1699C72.161 59.2966 72.099 59.4147 72.0064 59.5114C71.9138 59.608 71.7941 59.6796 71.6604 59.7183C71.5266 59.757 71.3839 59.7614 71.2476 59.7309Z" fill="white"></path></svg>